<svg width="630" height="630" viewBox="0 0 630 630" fill="none" xmlns="http://www.w3.org/2000/svg">
<rect width="630" height="630" fill="white"/>
<g clip-path="url(#clip0)">
<path d="M0 315V630H315H630V315V-9.38773e-06H315H0V315ZM507.7 289.9C523.7 293.9 535.9 301 547.1 312.6C552.9 318.8 561.5 330.1 562.2 332.8C562.4 333.6 535 352 518.4 362.3C517.8 362.7 515.4 360.1 512.7 356.1C504.6 344.3 496.1 339.2 483.1 338.3C464 337 451.7 347 451.8 363.7C451.8 368.6 452.5 371.5 454.5 375.5C458.7 384.2 466.5 389.4 491 400C536.1 419.4 555.4 432.2 567.4 450.4C580.8 470.7 583.8 503.1 574.7 527.2C564.7 553.4 539.9 571.2 505 577.1C494.2 579 468.6 578.7 457 576.6C431.7 572.1 407.7 559.6 392.9 543.2C387.1 536.8 375.8 520.1 376.5 518.9C376.8 518.5 379.4 516.9 382.3 515.2C385.1 513.6 395.7 507.5 405.7 501.7L423.8 491.2L427.6 496.8C432.9 504.9 444.5 516 451.5 519.7C471.6 530.3 499.2 528.8 512.8 516.6C518.6 511.3 521 505.8 521 497.7C521 490.4 520.1 487.2 516.3 481.7C511.4 474.7 501.4 468.8 473 456.5C440.5 442.5 426.5 433.8 413.7 420C406.3 412 399.3 399.2 396.4 388.5C394 379.6 393.4 357.3 395.3 348.3C402 316.9 425.7 295 459.9 288.5C471 286.4 496.8 287.2 507.7 289.9ZM359.8 316.2L360 342H319H278V458.5V575H249H220V458.5V342H179H138V316.7C138 302.7 138.3 291 138.7 290.7C139 290.3 188.9 290.1 249.4 290.2L359.5 290.5L359.8 316.2Z" fill="#007ACC"/>
<rect width="630" height="234" fill="#7CCCFF"/>
<path d="M263.6 124.4V139.3L233.9 124.4L208.5 139.3L183.1 124.4L153.4 139.3V124.4L187.1 83.9C187.1 83.9 195.6 72 208.5 72C221.4 72 229.9 83.9 229.9 83.9L263.6 124.4Z" fill="white"/>
<path d="M293 159.7L355.1 234.4H62L153.4 124.4V139.4L183.1 124.4L208.5 139.4L234 124.4L263.6 139.4V124.4L293 159.7Z" fill="#007ACC"/>
<circle cx="495" cy="115" r="75" fill="white"/>
</g>
<defs>
<clipPath id="clip0">
<rect width="630" height="630" fill="white"/>
</clipPath>
</defs>
</svg>
