<?xml version="1.0" encoding="UTF-8"?>
<svg width="100px" height="98px" viewBox="0 0 100 98" version="1.1" xmlns="http://www.w3.org/2000/svg" xmlns:xlink="http://www.w3.org/1999/xlink">
    <g id="Page-1" stroke="none" stroke-width="1" fill="none" fill-rule="evenodd">
        <g id="001-github-logo" fill="#000000" fill-rule="nonzero">
            <path d="M93.1963554,24.9596811 C88.7298405,17.3068337 82.6712984,11.2480638 75.0191344,6.78200456 C67.3658314,2.31571754 59.0107062,0.083143508 49.947836,0.083143508 C40.8861048,0.083143508 32.528246,2.31640091 24.8765376,6.78200456 C17.2236902,11.247836 11.1653759,17.3068337 6.69886105,24.9596811 C2.23302961,32.6123007 0,40.9690205 0,50.0296128 C0,60.9134396 3.17539863,70.7004556 9.52779043,79.3931663 C15.8794989,88.0865604 24.0849658,94.1020501 34.143508,97.4403189 C35.3143508,97.657631 36.1810934,97.5047836 36.7446469,96.9856492 C37.3084282,96.4658314 37.5899772,95.8148064 37.5899772,95.0353075 C37.5899772,94.9052392 37.5788155,93.7350797 37.5571754,91.5234624 C37.5348519,89.3118451 37.5243736,87.3824601 37.5243736,85.7362187 L36.0284738,85.9949886 C35.0747153,86.1697039 33.8715262,86.2437358 32.4189066,86.222779 C30.9669704,86.2025057 29.4596811,86.0503417 27.8990888,85.767426 C26.3378132,85.4870159 24.8856492,84.8366743 23.5414579,83.8177677 C22.1979499,82.798861 21.2441913,81.4651481 20.68041,79.8186788 L20.0300683,78.3220957 C19.5965831,77.3257403 18.914123,76.2189066 17.9817768,75.0056948 C17.0494305,73.791344 16.1066059,72.9681093 15.1528474,72.5346241 L14.6974943,72.208656 C14.3940774,71.9920273 14.1125285,71.7307517 13.852164,71.4275626 C13.5920273,71.1243736 13.3972665,70.8209567 13.2671982,70.5170843 C13.1369021,70.2129841 13.2448747,69.9635535 13.5922551,69.7678815 C13.9396355,69.5722096 14.567426,69.477221 15.4783599,69.477221 L16.7785877,69.6715262 C17.6457859,69.8453303 18.718451,70.3644647 19.9979499,71.2321185 C21.2767654,72.0990888 22.3280182,73.2261959 23.1519362,74.6129841 C24.1496583,76.3911162 25.3517084,77.7460137 26.7615034,78.6783599 C28.1701595,79.6107062 29.5904328,80.076082 31.0209567,80.076082 C32.4514806,80.076082 33.6870159,79.9676538 34.7280182,79.7519362 C35.7678815,79.5350797 36.743508,79.2091116 37.6544419,78.7758542 C38.0446469,75.8697039 39.1070615,73.6371298 40.8407745,72.0765376 C38.3697039,71.8168565 36.1480638,71.4257403 34.1747153,70.9056948 C32.2025057,70.3849658 30.1644647,69.5398633 28.061959,68.3681093 C25.9583144,67.1979499 24.2132118,65.7448747 22.8261959,64.0113895 C21.4389522,62.2769932 20.3004556,60 19.4123007,57.1824601 C18.5236902,54.3637813 18.0792711,51.1123007 18.0792711,47.4271071 C18.0792711,42.1799544 19.7922551,37.7148064 23.2175399,34.0291572 C21.6129841,30.0842825 21.7644647,25.661959 23.6724374,20.7626424 C24.9298405,20.3719818 26.794533,20.6651481 29.2656036,21.6403189 C31.7371298,22.6159453 33.546697,23.4517084 34.6961276,24.1446469 C35.8455581,24.8373576 36.7665148,25.4243736 37.4603645,25.9004556 C41.4933941,24.7735763 45.6553531,24.2100228 49.9473804,24.2100228 C54.2394077,24.2100228 58.4022779,24.7735763 62.4355353,25.9004556 L64.9068337,24.3403189 C66.5968109,23.2993166 68.5924829,22.3453303 70.8890661,21.4781321 C73.1870159,20.6113895 74.9441913,20.3726651 76.1587699,20.7633257 C78.1091116,25.6628702 78.2829157,30.0849658 76.6779043,34.0298405 C80.1029613,37.7154897 81.8166287,42.1817768 81.8166287,47.4277904 C81.8166287,51.1129841 81.370615,54.3747153 80.4833713,57.2150342 C79.5949886,60.0558087 78.446697,62.3305239 77.038041,64.0439636 C75.6277904,65.7571754 73.8715262,67.198861 71.7690205,68.3687927 C69.6660592,69.5396355 67.6273349,70.384738 65.6551253,70.905467 C63.6820046,71.4261959 61.4603645,71.8175399 58.9892938,72.0776765 C61.2430524,74.0280182 62.3701595,77.1066059 62.3701595,81.3120729 L62.3701595,95.0334852 C62.3701595,95.8129841 62.6412301,96.4637813 63.1838269,96.9838269 C63.7257403,97.5029613 64.581549,97.6558087 65.7523918,97.4382688 C75.8123007,94.1004556 84.0177677,88.084738 90.3692483,79.391344 C96.7200456,70.6986333 99.8965831,60.9116173 99.8965831,50.0277904 C99.8943052,40.9683371 97.6601367,32.6123007 93.1963554,24.9596811 Z" id="Path"></path>
        </g>
    </g>
</svg>