<?xml version="1.0" encoding="utf-8"?>
<!-- Generator: Adobe Illustrator 22.1.0, SVG Export Plug-In . SVG Version: 6.00 Build 0)  -->
<svg version="1.1" id="レイヤー_1" xmlns="http://www.w3.org/2000/svg" xmlns:xlink="http://www.w3.org/1999/xlink" x="0px"
	 y="0px" viewBox="0 0 630 630" style="enable-background:new 0 0 630 630;" xml:space="preserve">
<style type="text/css">
	.st0{fill:#007ACC;}
</style>
<g>
	<path class="st0" d="M101.9,105.9C100,100.2,96,94,90.7,88.4c-0.5-0.5-1.4-0.5-1.9,0c-0.5,0.5-0.5,1.4,0,1.9
		c4.9,5.1,8.5,10.7,10.4,15.9c-3.5-4.6-9.1-9.2-16.2-12.8c-0.7-0.3-1.5-0.1-1.8,0.6c-0.3,0.7-0.1,1.5,0.6,1.8
		c10,5.2,17.3,12.7,18.5,18.5c-0.2,1.5-0.8,2.7-1.7,3.6c-0.5,0.5-0.5,1.4,0,1.9c0.3,0.3,0.6,0.4,0.9,0.4c0.2,0,0.4,0,0.5-0.1
		c0.1,0.2,0.3,0.3,0.4,0.4c0.2,0.1,0.4,0.1,0.6,0.1c0.5,0,1-0.3,1.2-0.7c0.9-1.7,1.1-3.6,0.7-5.6C103.4,111.8,103,109,101.9,105.9z"
		/>
	<path class="st0" d="M183.3,190.2c0.1,0.1,0.3,0.2,0.5,0.2c0.2,0,0.3-0.1,0.5-0.2c0.1-0.1,0.1-0.2,0.2-0.3c0,0,0,0,0,0
		c0.2,0,0.5-0.1,0.6-0.4c0.2-0.3,0.1-0.7-0.3-0.9c-0.6-0.3-1-0.8-1.3-1.5c-0.2-3,2.2-7.9,6.2-12c0.3-0.3,0.3-0.7,0-1
		c-0.3-0.3-0.7-0.3-1,0c-2.8,2.8-4.8,5.8-5.8,8.6c0.2-2.7,1.1-6,2.7-9.2c0.2-0.3,0-0.8-0.3-0.9c-0.3-0.2-0.8,0-0.9,0.3
		c-2.8,5.7-3.6,11.3-2.3,14.5C182.3,188.6,182.7,189.5,183.3,190.2z"/>
	<path class="st0" d="M315,0H0v315v315h315h315V315V0H315z M171.4,162.1c1.5-21.7,11.1-6.7,11.1-6.7s10.2-16.2,10.9,7
		c0.1,3.1-0.2,5.8-0.7,8.2c1.9-1,4-1.8,6.3-2.4c21.1-5.3,9.8,8.5,9.8,8.5s18.6,4.7-3.3,12.5c-1.7,0.6-3.3,1-4.8,1.4
		c0.8,0.9,1.5,1.9,2.2,3c11.5,18.5-5,11.9-5,11.9s1.3,19.1-12.9,0.7c-1.3-1.7-2.4-3.4-3.3-5c-0.9,1.8-2.1,3.6-3.6,5.4
		c-14,16.7-12.9-1.1-12.9-1.1s-17.8,7.1-4.7-12.1c0.8-1.2,1.7-2.3,2.6-3.3c-1.4-0.3-2.8-0.8-4.2-1.3c-20.2-8.2-2.9-12.6-2.9-12.6
		s-12.3-14.7,10-8.2c2.3,0.7,4.3,1.5,6.1,2.4C171.5,167.8,171.2,165,171.4,162.1z M109.6,151.6c-2.6-3.4-4.7-6.7-6.4-9.8
		c-1.8,3.5-4.1,7-6.9,10.4c-27.2,32.4-25-2.2-25-2.2s-34.5,13.8-9-23.4c1.6-2.4,3.3-4.5,5-6.5c-2.6-0.6-5.3-1.5-8.1-2.6
		c-39.2-15.9-5.7-24.5-5.7-24.5S29.7,64.5,73,77.2c4.5,1.3,8.4,2.9,11.8,4.6c-1.1-4.8-1.6-10.2-1.2-15.9c3-42.2,21.5-13,21.5-13
		s19.8-31.5,21.1,13.7c0.2,6-0.4,11.3-1.4,15.9c3.7-1.9,7.8-3.5,12.3-4.6c41-10.2,19,16.5,19,16.5s36,9.1-6.5,24.3
		c-3.3,1.2-6.4,2-9.3,2.7c1.5,1.8,2.9,3.7,4.2,5.8c22.4,35.9-9.8,23.1-9.8,23.1S137.2,187.3,109.6,151.6z M319,342h-41v116.5V575
		h-29h-29V458.5V342h-41h-41v-25.3c0-14,0.3-25.7,0.7-26c0.3-0.4,50.2-0.6,110.7-0.5l110.1,0.3l0.3,25.7L360,342H319z M574.7,527.2
		c-10,26.2-34.8,44-69.7,49.9c-10.8,1.9-36.4,1.6-48-0.5c-25.3-4.5-49.3-17-64.1-33.4c-5.8-6.4-17.1-23.1-16.4-24.3
		c0.3-0.4,2.9-2,5.8-3.7c2.8-1.6,13.4-7.7,23.4-13.5l18.1-10.5l3.8,5.6c5.3,8.1,16.9,19.2,23.9,22.9c20.1,10.6,47.7,9.1,61.3-3.1
		c5.8-5.3,8.2-10.8,8.2-18.9c0-7.3-0.9-10.5-4.7-16c-4.9-7-14.9-12.9-43.3-25.2c-32.5-14-46.5-22.7-59.3-36.5
		c-7.4-8-14.4-20.8-17.3-31.5c-2.4-8.9-3-31.2-1.1-40.2c6.7-31.4,30.4-53.3,64.6-59.8c11.1-2.1,36.9-1.3,47.8,1.4
		c16,4,28.2,11.1,39.4,22.7c5.8,6.2,14.4,17.5,15.1,20.2c0.2,0.8-27.2,19.2-43.8,29.5c-0.6,0.4-3-2.2-5.7-6.2
		c-8.1-11.8-16.6-16.9-29.6-17.8c-19.1-1.3-31.4,8.7-31.3,25.4c0,4.9,0.7,7.8,2.7,11.8c4.2,8.7,12,13.9,36.5,24.5
		c45.1,19.4,64.4,32.2,76.4,50.4C580.8,470.7,583.8,503.1,574.7,527.2z"/>
	<path class="st0" d="M117.4,89.6c-5.4,5.4-9.3,11.3-11.3,16.7c0.4-5.2,2.1-11.6,5.3-17.9c0.3-0.7,0.1-1.5-0.6-1.8
		c-0.7-0.3-1.5-0.1-1.8,0.6c-5.5,11-7,21.9-4.4,28.2c0.2,2,0.9,3.8,2.2,5.1c0.3,0.3,0.6,0.4,1,0.4c0.3,0,0.7-0.1,0.9-0.4
		c0.2-0.1,0.3-0.3,0.3-0.5c0,0,0.1,0,0.1,0c0.5,0,1-0.2,1.2-0.7c0.3-0.6,0.1-1.5-0.6-1.8c-1.1-0.6-1.9-1.6-2.5-2.8
		c-0.5-5.9,4.2-15.3,12.1-23.2c0.5-0.5,0.5-1.4,0-1.9C118.8,89.1,117.9,89.1,117.4,89.6z"/>
	<path class="st0" d="M179.4,182.8c-1.8-2.4-4.7-4.7-8.3-6.6c-0.3-0.2-0.8,0-0.9,0.3c-0.2,0.3,0,0.8,0.3,0.9
		c5.2,2.7,8.9,6.5,9.5,9.5c-0.1,0.8-0.4,1.4-0.9,1.9c-0.3,0.3-0.3,0.7,0,1c0.1,0.1,0.3,0.2,0.5,0.2c0.1,0,0.2,0,0.3-0.1
		c0.1,0.1,0.1,0.2,0.2,0.2c0.1,0.1,0.2,0.1,0.3,0.1c0.3,0,0.5-0.1,0.6-0.4c0.4-0.9,0.5-1.8,0.4-2.9c0.1-1.2,0-2.7-0.6-4.3
		c-1-2.9-3-6.1-5.8-9c-0.3-0.3-0.7-0.3-1,0c-0.3,0.3-0.3,0.7,0,1C176.6,177.2,178.5,180.1,179.4,182.8z"/>
</g>
</svg>
