<?xml version="1.0" encoding="UTF-8"?>
<svg width="90px" height="73px" viewBox="0 0 90 73" version="1.1" xmlns="http://www.w3.org/2000/svg" xmlns:xlink="http://www.w3.org/1999/xlink">
    <g id="Page-1" stroke="none" stroke-width="1" fill="none" fill-rule="evenodd">
        <g id="002-twitter-black-shape" fill="#000000" fill-rule="nonzero">
            <path d="M89.9912195,8.71203991 C86.4586696,10.2314634 82.9253215,11.1803548 79.3943681,11.5615078 C83.3825055,9.16862528 86.0801109,5.78813747 87.4855876,1.4202439 C83.8374945,3.5848337 79.9449446,5.06574279 75.8051441,5.8637694 C72.1584479,1.98957871 67.6772062,0.0516851441 62.3584257,0.0516851441 C57.2693348,0.0516851441 52.9301774,1.84609756 49.339357,5.43572062 C45.7505322,9.02514412 43.9559202,13.3643016 43.9559202,18.4537916 C43.9559202,19.8209534 44.1075831,21.2268293 44.4117073,22.6700222 C36.8908204,22.2902661 29.8356984,20.4006652 23.2451441,17.0012195 C16.6549889,13.6013747 11.0620177,9.07184035 6.4662306,3.41261641 C4.79494457,6.26068736 3.95900222,9.3568071 3.95900222,12.6991796 C3.95900222,15.8517738 4.69955654,18.7768736 6.18166297,21.4736807 C7.66277162,24.1700887 9.65733925,26.3538359 12.1643681,28.0253215 C9.20115299,27.9111752 6.42851441,27.132306 3.84605322,25.6889135 L3.84605322,25.9168071 C3.84605322,30.3611308 5.24195122,34.2630599 8.03334812,37.6255876 C10.8251441,40.9877162 14.3483149,43.1040133 18.6020621,43.978071 C17.0066075,44.3953437 15.3919956,44.6042794 13.7590244,44.6042794 C12.695388,44.6042794 11.5367627,44.50949 10.2835477,44.3209091 C11.4609313,48.0045233 13.6261197,51.0325942 16.7783149,53.4077162 C19.9311086,55.7816408 23.5015743,57.0053215 27.4899113,57.0831486 C20.8051663,62.3239024 13.1896896,64.9442794 4.64348115,64.9442794 C3.00991131,64.9442794 1.52900222,64.8698448 0.199356984,64.7169845 C8.74576497,70.2239468 18.1654324,72.9774279 28.4589579,72.9774279 C34.9920399,72.9774279 41.126408,71.9435255 46.8600665,69.8729268 C52.5965188,67.8037251 57.4958315,65.0302882 61.5603991,61.5542129 C65.6237694,58.0789357 69.1285809,54.0812195 72.0718404,49.5614634 C75.0152993,45.0413082 77.2080266,40.3223947 78.6526164,35.4037251 C80.0954102,30.4840576 80.8174058,25.5568071 80.8174058,20.6181818 C80.8174058,19.5545455 80.7982483,18.7573171 80.760133,18.2252993 C84.3695122,15.6057206 87.4460754,12.4335698 89.9912195,8.71203991 Z" id="Path"></path>
        </g>
    </g>
</svg>